#Comment line ignore any data following # character 
#Hierarchical Translation and Rotation (.htr) file 
[Header]	
#Header keywords are followed by a single value 
FileType HTR		#Single word string
DataType HTRS		#Translation followed by rotation and scale data
FileVersion 1		#integer
NumSegments 64		#integer
NumFrames 3		#integer
DataFrameRate 30		#integer, data frame rate in this file
EulerRotationOrder ZYX
CalibrationUnits mm
RotationUnits Degrees
GlobalAxisofGravity Y
BoneLengthAxis Y
ScaleFactor 1.00
[SegmentNames&Hierarchy]
#CHILD	PARENT
Pinger_Root GLOBAL
Pelvis Pinger_Root
L_Hip Pelvis
R_Hip Pelvis
Rear_Leg01 Pelvis
Spine1 Pelvis
L_Leg01 L_Hip
L_Leg02 L_Leg01
L_Leg03 L_Leg02
L_Foot L_Leg03
L_Toe1_01 L_Foot
L_Toe2_01 L_Foot
L_Toe3_01 L_Foot
planeAlignerLeft L_Foot
L_Toe1_02 L_Toe1_01
L_Toe1_03 L_Toe1_02
L_Toe2_02 L_Toe2_01
L_Toe2_03 L_Toe2_02
L_Toe3_02 L_Toe3_01
L_Toe3_03 L_Toe3_02
planeLockWeightLeft planeAlignerLeft
R_Leg01 R_Hip
R_Leg02 R_Leg01
R_Leg03 R_Leg02
R_Foot R_Leg03
planeAlignerRight R_Foot
R_Toe1_01 R_Foot
R_Toe2_01 R_Foot
R_Toe3_01 R_Foot
planeLockWeightRight planeAlignerRight
R_Toe1_02 R_Toe1_01
R_Toe1_03 R_Toe1_02
R_Toe2_02 R_Toe2_01
R_Toe2_03 R_Toe2_02
R_Toe3_02 R_Toe3_01
R_Toe3_03 R_Toe3_02
Rear_Leg02 Rear_Leg01
Rear_Leg03 Rear_Leg02
Rear_Leg04 Rear_Leg03
Rear_Foot Rear_Leg04
planeAlignerCenter Rear_Foot
Rear_Toe1_01 Rear_Foot
Rear_Toe2_01 Rear_Foot
Rear_Toe3_01 Rear_Foot
planeLockWeightCenter planeAlignerCenter
Rear_Toe1_02 Rear_Toe1_01
Rear_Toe1_03 Rear_Toe1_02
Rear_Toe2_02 Rear_Toe2_01
Rear_Toe2_03 Rear_Toe2_02
Rear_Toe3_02 Rear_Toe3_01
Rear_Toe3_03 Rear_Toe3_02
Back_Bone Spine1
Head Spine1
Motor_Bone Back_Bone
Ping_Mechanism Back_Bone
BN_LookIK Head
bottomMouth Head
L_Mouth01 Head
L_mouthFront Head
mouthGun Head
R_Mouth01 Head
R_mouthFront Head
TopMouth Head
weapon_bone Head
[BasePosition]
#SegmentName Tx, Ty, Tz, Rx, Ry, Rz, BoneLength
Pinger_Root 0.000000 0.000000 0.000000 -90.000000 0.000000 0.000000 10.000000 
Pelvis 0.000000 0.000000 0.000000 0.000000 0.000000 0.000000 10.000000 
L_Hip 0.000000 0.000000 0.000000 0.000000 0.000000 0.000000 10.000000 
R_Hip 0.000000 0.000000 0.000000 0.000000 0.000000 0.000000 10.000000 
Rear_Leg01 0.000000 0.000000 0.000000 0.000000 0.000000 0.000000 10.000000 
Spine1 0.000000 0.000000 0.000000 0.000000 0.000000 0.000000 10.000000 
L_Leg01 0.000000 0.000000 0.000000 0.000000 0.000000 0.000000 10.000000 
L_Leg02 0.000000 0.000000 0.000000 0.000000 0.000000 0.000000 10.000000 
L_Leg03 0.000000 0.000000 0.000000 0.000000 0.000000 0.000000 10.000000 
L_Foot 0.000000 0.000000 0.000000 0.000000 0.000000 0.000000 10.000000 
L_Toe1_01 0.000000 0.000000 0.000000 0.000000 0.000000 0.000000 10.000000 
L_Toe2_01 0.000000 0.000000 0.000000 0.000000 0.000000 0.000000 10.000000 
L_Toe3_01 0.000000 0.000000 0.000000 0.000000 0.000000 0.000000 10.000000 
planeAlignerLeft 0.000000 0.000000 0.000000 0.000000 0.000000 0.000000 10.000000 
L_Toe1_02 0.000000 0.000000 0.000000 0.000000 0.000000 0.000000 10.000000 
L_Toe1_03 0.000000 0.000000 0.000000 0.000000 0.000000 0.000000 10.000000 
L_Toe2_02 0.000000 0.000000 0.000000 0.000000 0.000000 0.000000 10.000000 
L_Toe2_03 0.000000 0.000000 0.000000 0.000000 0.000000 0.000000 10.000000 
L_Toe3_02 0.000000 0.000000 0.000000 0.000000 0.000000 0.000000 10.000000 
L_Toe3_03 0.000000 0.000000 0.000000 0.000000 0.000000 0.000000 10.000000 
planeLockWeightLeft 0.000000 0.000000 0.000000 0.000000 0.000000 0.000000 10.000000 
R_Leg01 0.000000 0.000000 0.000000 0.000000 0.000000 0.000000 10.000000 
R_Leg02 0.000000 0.000000 0.000000 0.000000 0.000000 0.000000 10.000000 
R_Leg03 0.000000 0.000000 0.000000 0.000000 0.000000 0.000000 10.000000 
R_Foot 0.000000 0.000000 0.000000 0.000000 0.000000 0.000000 10.000000 
planeAlignerRight 0.000000 0.000000 0.000000 0.000000 0.000000 0.000000 10.000000 
R_Toe1_01 0.000000 0.000000 0.000000 0.000000 0.000000 0.000000 10.000000 
R_Toe2_01 0.000000 0.000000 0.000000 0.000000 0.000000 0.000000 10.000000 
R_Toe3_01 0.000000 0.000000 0.000000 0.000000 0.000000 0.000000 10.000000 
planeLockWeightRight 0.000000 0.000000 0.000000 0.000000 0.000000 0.000000 10.000000 
R_Toe1_02 0.000000 0.000000 0.000000 0.000000 0.000000 0.000000 10.000000 
R_Toe1_03 0.000000 0.000000 0.000000 0.000000 0.000000 0.000000 10.000000 
R_Toe2_02 0.000000 0.000000 0.000000 0.000000 0.000000 0.000000 10.000000 
R_Toe2_03 0.000000 0.000000 0.000000 0.000000 0.000000 0.000000 10.000000 
R_Toe3_02 0.000000 0.000000 0.000000 0.000000 0.000000 0.000000 10.000000 
R_Toe3_03 0.000000 0.000000 0.000000 0.000000 0.000000 0.000000 10.000000 
Rear_Leg02 0.000000 0.000000 0.000000 0.000000 0.000000 0.000000 10.000000 
Rear_Leg03 0.000000 0.000000 0.000000 0.000000 0.000000 0.000000 10.000000 
Rear_Leg04 0.000000 0.000000 0.000000 0.000000 0.000000 0.000000 10.000000 
Rear_Foot 0.000000 0.000000 0.000000 0.000000 0.000000 0.000000 10.000000 
planeAlignerCenter 0.000000 0.000000 0.000000 0.000000 0.000000 0.000000 10.000000 
Rear_Toe1_01 0.000000 0.000000 0.000000 0.000000 0.000000 0.000000 10.000000 
Rear_Toe2_01 0.000000 0.000000 0.000000 0.000000 0.000000 0.000000 10.000000 
Rear_Toe3_01 0.000000 0.000000 0.000000 0.000000 0.000000 0.000000 10.000000 
planeLockWeightCenter 0.000000 0.000000 0.000000 0.000000 0.000000 0.000000 10.000000 
Rear_Toe1_02 0.000000 0.000000 0.000000 0.000000 0.000000 0.000000 10.000000 
Rear_Toe1_03 0.000000 0.000000 0.000000 0.000000 0.000000 0.000000 10.000000 
Rear_Toe2_02 0.000000 0.000000 0.000000 0.000000 0.000000 0.000000 10.000000 
Rear_Toe2_03 0.000000 0.000000 0.000000 0.000000 0.000000 0.000000 10.000000 
Rear_Toe3_02 0.000000 0.000000 0.000000 0.000000 0.000000 0.000000 10.000000 
Rear_Toe3_03 0.000000 0.000000 0.000000 0.000000 0.000000 0.000000 10.000000 
Back_Bone 0.000000 0.000000 0.000000 0.000000 0.000000 0.000000 10.000000 
Head 0.000000 0.000000 0.000000 0.000000 0.000000 0.000000 10.000000 
Motor_Bone 0.000000 0.000000 0.000000 0.000000 0.000000 0.000000 10.000000 
Ping_Mechanism 0.000000 0.000000 0.000000 0.000000 0.000000 0.000000 10.000000 
BN_LookIK 0.000000 0.000000 0.000000 0.000000 0.000000 0.000000 10.000000 
bottomMouth 0.000000 0.000000 0.000000 0.000000 0.000000 0.000000 10.000000 
L_Mouth01 0.000000 0.000000 0.000000 0.000000 0.000000 0.000000 10.000000 
L_mouthFront 0.000000 0.000000 0.000000 0.000000 0.000000 0.000000 10.000000 
mouthGun 0.000000 0.000000 0.000000 0.000000 0.000000 0.000000 10.000000 
R_Mouth01 0.000000 0.000000 0.000000 0.000000 0.000000 0.000000 10.000000 
R_mouthFront 0.000000 0.000000 0.000000 0.000000 0.000000 0.000000 10.000000 
TopMouth 0.000000 0.000000 0.000000 0.000000 0.000000 0.000000 10.000000 
weapon_bone 0.000000 0.000000 0.000000 0.000000 0.000000 0.000000 10.000000 
#Beginning of Data. Separated by tabs
#Fr	Tx	Ty	Tz	Rx	Ry	Rz	SF
[Pinger_Root]
51 -2499.999756 -0.000690 0.000000 -0.000075 -0.000000 -0.000020 2499.999756
52 -2499.999756 -0.000690 0.000000 -0.000075 -0.000000 -0.000020 2499.999756
53 -2499.999756 -0.000690 0.000000 -0.000075 -0.000000 -0.000020 2499.999756
[Pelvis]
51 -195.321304 871.570129 4092.876465 -98.330406 -69.302696 113.114990 4189.203125
52 -194.195541 886.009216 4069.755127 -94.104889 -70.980682 108.004265 4169.607910
53 -190.700958 899.210083 4063.270020 -89.023949 -72.513428 102.041832 4165.946289
[L_Hip]
51 5.766392 125.831482 872.656799 166.684418 -74.620682 104.154259 881.701050
52 5.766392 125.831482 872.656799 165.632935 -73.504555 105.500870 881.701050
53 5.766392 125.831482 872.656799 164.733368 -72.382469 106.696480 881.701050
[R_Hip]
51 5.765438 125.836372 -872.654907 22.337265 76.177002 110.337784 881.699829
52 5.765438 125.836372 -872.654907 24.305256 75.167107 112.176552 881.699829
53 5.765438 125.836372 -872.654907 26.030767 74.142937 113.772484 881.699829
[Rear_Leg01]
51 -192.298416 -925.602966 -0.001907 172.004944 9.551584 -156.680954 945.367432
52 -192.298416 -925.602966 -0.001907 174.603577 4.868068 -152.466629 945.367432
53 -192.298416 -925.602966 -0.001907 177.882492 0.860436 -148.286499 945.367432
[Spine1]
51 290.604584 5.007505 0.000477 -5.350717 7.044351 4.102834 290.647736
52 290.604584 5.007505 0.000477 -5.154353 5.206424 5.472579 290.647736
53 290.604584 5.007505 0.000477 -5.002476 3.363624 6.833269 290.647736
[L_Leg01]
51 761.932007 -0.002384 -0.069261 0.431419 -70.582527 3.708781 761.932068
52 761.932007 -0.002384 -0.069261 14.499928 -68.165710 -12.068316 761.932068
53 761.932007 -0.002384 -0.069261 27.168722 -64.357285 -26.969002 761.932068
[L_Leg02]
51 1441.140503 -0.000954 -0.000715 0.992476 -0.168575 -124.267754 1441.140503
52 1441.140503 -0.000954 -0.000715 1.246668 -0.170789 -122.164124 1441.140503
53 1441.140503 -0.000954 -0.000715 1.349103 -0.146249 -118.423187 1441.140503
[L_Leg03]
51 1686.963989 -0.000715 -0.000954 0.000286 -0.001827 110.065735 1686.963989
52 1686.963989 -0.000715 -0.000954 -0.011401 0.002342 113.219490 1686.963989
53 1686.963989 -0.000715 -0.000954 -0.020777 0.008382 115.981819 1686.963989
[L_Foot]
51 3041.570068 -30.715107 11.297464 4.612123 6.379277 37.579853 3041.746094
52 3041.570068 -30.715107 11.297464 4.672295 6.684566 37.061398 3041.746094
53 3041.570068 -30.715107 11.297464 4.729718 6.990393 36.542892 3041.746094
[L_Toe1_01]
51 -188.216690 -224.732346 -21.137953 90.040108 -2.759522 -161.321716 293.899567
52 -188.216690 -224.732346 -21.137953 90.165543 -2.944713 -161.887039 293.899567
53 -188.216690 -224.732346 -21.137953 90.335579 -3.230170 -162.856430 293.899567
[L_Toe2_01]
51 200.746536 -219.926590 148.838394 -82.182541 -16.216402 -39.617275 332.896027
52 200.746536 -219.926590 148.838394 -82.526299 -16.684456 -40.021976 332.896027
53 200.746536 -219.926590 148.838394 -82.867432 -17.154797 -40.424713 332.896027
[L_Toe3_01]
51 188.832520 -219.859131 -191.078659 -106.203308 29.309607 -47.320518 347.140900
52 188.832520 -219.859131 -191.078659 -105.937958 28.711380 -47.851269 347.140900
53 188.832520 -219.859131 -191.078659 -105.616043 27.814514 -48.416924 347.140900
[planeAlignerLeft]
51 20.933834 -525.179260 -22.040510 170.534790 -87.170082 97.206848 526.058228
52 25.633945 -525.438843 -15.194834 170.369019 -86.719978 97.015610 526.283142
53 30.334162 -525.698364 -8.349104 170.200104 -86.269859 96.827301 526.638977
[L_Toe1_02]
51 413.761139 0.000477 0.000000 0.001396 -24.406414 0.001396 413.761139
52 413.761139 0.000477 0.000000 0.001393 -24.752211 0.001393 413.761139
53 413.761139 0.000477 0.000000 0.001391 -25.098021 0.001391 413.761139
[L_Toe1_03]
51 464.317322 0.000358 -0.000089 0.002658 37.602257 0.002658 464.317322
52 464.317322 0.000358 -0.000089 0.002757 39.604034 0.002757 464.317322
53 464.317322 0.000358 -0.000089 0.002896 42.148930 0.002896 464.317322
[L_Toe2_02]
51 342.235809 -0.000477 0.000238 0.001180 -78.021431 0.001180 342.235809
52 342.235809 -0.000477 0.000238 0.001180 -77.859131 0.001180 342.235809
53 342.235809 -0.000477 0.000238 0.001180 -77.696808 0.001180 342.235809
[L_Toe2_03]
51 420.210846 -0.000715 0.000000 -179.997269 75.340958 -179.993744 420.210846
52 420.210846 -0.000715 0.000000 -179.997009 76.097008 -179.993484 420.210846
53 420.210846 -0.000715 0.000000 -179.996475 77.499054 -179.992966 420.210846
[L_Toe3_02]
51 329.270111 0.000954 0.000000 0.004493 -83.595093 0.004493 329.270111
52 329.270111 0.000954 0.000000 0.004309 -83.496574 0.004309 329.270111
53 329.270111 0.000954 0.000000 0.004125 -83.398056 0.004125 329.270111
[L_Toe3_03]
51 439.137451 -0.001907 0.000954 179.991562 61.907402 179.998779 439.137451
52 439.137451 -0.001907 0.000954 179.991531 62.132175 179.998734 439.137451
53 439.137451 -0.001907 0.000954 179.991409 62.825623 179.998596 439.137451
[planeLockWeightLeft]
51 1000.000244 0.000000 -0.000013 -0.011826 -0.004376 0.005620 1000.000244
52 1000.000244 0.000000 -0.000024 -0.011826 -0.004376 0.005620 1000.000244
53 1000.000244 0.000000 -0.000035 -0.011826 -0.004376 0.005620 1000.000244
[R_Leg01]
51 761.455627 -0.001907 -0.000358 130.064163 -23.753204 45.846970 761.455688
52 761.455627 -0.001907 -0.000358 130.119293 -17.875526 46.280766 761.455688
53 761.455627 -0.001907 -0.000358 131.005508 -11.610367 46.715546 761.455688
[R_Leg02]
51 1441.140625 0.000000 -0.000238 -1.468172 -0.396836 -130.891266 1441.140625
52 1441.140625 0.000000 -0.000238 -1.838477 -0.622605 -127.896172 1441.140625
53 1441.140625 0.000000 -0.000238 -2.079443 -0.835755 -123.182625 1441.140625
[R_Leg03]
51 1686.963989 0.000954 0.001431 0.094799 -0.051389 135.748535 1686.963989
52 1686.963989 0.000954 0.001431 0.108847 -0.061838 139.585205 1686.963989
53 1686.963989 0.000954 0.001431 0.119798 -0.070756 142.486343 1686.963989
[R_Foot]
51 3041.560059 -30.531288 -11.204481 21.034838 -22.506142 52.495193 3041.734131
52 3041.560059 -30.531288 -11.204481 19.261162 -21.038296 51.060444 3041.734131
53 3041.560059 -30.531288 -11.204481 17.301332 -18.934280 49.224590 3041.734131
[planeAlignerRight]
51 -34.563118 -760.590576 -95.138031 -36.765720 -84.995903 -56.423603 767.296448
52 -43.578281 -746.171143 -115.169601 -36.760693 -83.690895 -57.224567 756.263489
53 -52.593483 -731.751648 -135.201263 -36.894302 -82.386139 -57.888046 745.993225
[R_Toe1_01]
51 -188.383347 -224.864899 21.052242 87.130341 -2.421681 -153.999481 294.101532
52 -188.383347 -224.864899 21.052242 85.916588 -2.200579 -155.938675 294.101532
53 -188.383347 -224.864899 21.052242 84.695160 -2.020547 -157.883484 294.101532
[R_Toe2_01]
51 200.637817 -220.002121 -148.787384 -98.984894 7.010134 -55.932426 332.857574
52 200.637817 -220.002121 -148.787384 -98.772720 8.952502 -56.338696 332.857574
53 200.637817 -220.002121 -148.787384 -98.489464 11.391335 -56.715012 332.857574
[R_Toe3_01]
51 188.606735 -220.092957 191.126343 -62.214836 -25.559019 -71.624489 347.192566
52 188.606735 -220.092957 191.126343 -63.035282 -23.873739 -71.888329 347.192566
53 188.606735 -220.092957 191.126343 -63.854134 -22.191559 -72.175003 347.192566
[planeLockWeightRight]
51 999.999573 0.000472 -0.000355 -0.011823 -0.004379 -0.000027 999.999573
52 999.999573 0.000466 -0.000363 -0.011823 -0.004379 -0.000027 999.999573
53 999.999573 0.000461 -0.000372 -0.011823 -0.004379 -0.000027 999.999573
[R_Toe1_02]
51 413.762085 0.000477 -0.000119 0.001386 -25.732090 0.001386 413.762085
52 413.762085 0.000477 -0.000119 0.001387 -25.643551 0.001387 413.762085
53 413.762085 0.000477 -0.000119 0.001387 -25.555010 0.001387 413.762085
[R_Toe1_03]
51 464.317810 0.000000 0.001088 0.004310 58.381344 0.004310 464.317810
52 464.317810 0.000000 0.001088 0.004529 59.942719 0.004529 464.317810
53 464.317810 0.000000 0.001088 0.004770 61.503811 0.004770 464.317810
[R_Toe2_02]
51 342.234741 -0.000954 0.000238 0.001209 -62.081242 0.001209 342.234741
52 342.234741 -0.000954 0.000238 0.001208 -62.840897 0.001208 342.234741
53 342.234741 -0.000954 0.000238 0.001206 -63.600613 0.001206 342.234741
[R_Toe2_03]
51 420.210846 0.000715 -0.000268 -0.004388 64.383148 -0.000800 420.210846
52 420.210846 0.000715 -0.000268 -0.004518 65.667976 -0.000939 420.210846
53 420.210846 0.000715 -0.000268 -0.004664 66.952782 -0.001093 420.210846
[R_Toe3_02]
51 329.270355 -0.000477 -0.000954 -0.002385 -63.856766 -0.002385 329.270355
52 329.270355 -0.000477 -0.000954 -0.001783 -65.028427 -0.001783 329.270355
53 329.270355 -0.000477 -0.000954 -0.001183 -66.200623 -0.001183 329.270355
[R_Toe3_03]
51 439.137939 0.000238 0.001431 0.004991 62.798817 0.004991 439.137939
52 439.137939 0.000238 0.001431 0.005309 64.456017 0.005309 439.137939
53 439.137939 0.000238 0.001431 0.005796 66.617332 0.005796 439.137939
[Rear_Leg02]
51 1162.777710 -0.029802 0.005960 -42.475456 8.628445 -137.470795 1162.777710
52 1162.777710 -0.029802 0.005960 -40.379684 7.660522 -139.763748 1162.777710
53 1162.777710 -0.029802 0.005960 -37.233070 9.891300 -138.625092 1162.777710
[Rear_Leg03]
51 607.192505 -0.013351 -0.073195 0.009872 -0.006221 80.789558 607.192505
52 607.192505 -0.013351 -0.073195 0.009868 -0.006228 80.867523 607.192505
53 607.192505 -0.013351 -0.073195 0.009888 -0.006195 80.484734 607.192505
[Rear_Leg04]
51 995.874512 -0.020504 -0.011921 -0.042396 -0.014577 107.869301 995.874573
52 995.874512 -0.020504 -0.011921 -0.042482 -0.014324 108.553177 995.874573
53 995.874512 -0.020504 -0.011921 -0.042068 -0.015498 105.371567 995.874573
[Rear_Foot]
51 3096.176270 -0.067472 -0.041425 91.679764 47.169628 -117.742638 3096.176270
52 3096.176270 -0.067472 -0.041425 96.006805 49.161026 -112.499756 3096.176270
53 3096.176270 -0.067472 -0.041425 97.325081 51.523987 -109.471008 3096.176270
[planeAlignerCenter]
51 -65.813400 -16.144678 -893.764526 3.194658 -0.001613 179.998306 896.329712
52 -45.404797 49.109535 -933.828613 3.579487 -0.001608 179.998291 936.220703
53 -25.525789 110.153633 -970.669312 3.964376 -0.001602 179.998291 977.232971
[Rear_Toe1_01]
51 0.653352 83.966492 -371.173737 3.908372 34.173206 95.280655 380.553192
52 0.653352 83.966492 -371.173737 2.671233 36.571438 93.636948 380.553192
53 0.653352 83.966492 -371.173737 1.784864 39.251087 92.388504 380.553192
[Rear_Toe2_01]
51 178.200760 -294.826019 -362.060547 -4.007121 57.778400 -75.473450 499.765686
52 178.200760 -294.826019 -362.060547 -0.739649 61.112537 -70.349846 499.765686
53 178.200760 -294.826019 -362.060547 4.742073 64.233055 -63.232056 499.765686
[Rear_Toe3_01]
51 -153.359680 -308.780914 -362.060852 -4.192333 57.041451 -117.736000 499.952881
52 -153.359680 -308.780914 -362.060852 -5.806851 60.248001 -119.413345 499.952881
53 -153.359680 -308.780914 -362.060852 -7.644681 63.358490 -121.240952 499.952881
[planeLockWeightCenter]
51 -0.000019 0.000153 -0.000033 -0.011814 -0.004373 -0.000015 0.000157
52 -0.000000 0.000153 -0.000048 -0.011814 -0.004373 -0.000015 0.000160
53 0.000019 0.000153 -0.000062 -0.011814 -0.004373 -0.000015 0.000166
[Rear_Toe1_02]
51 379.707825 0.194073 0.000477 -0.006723 -29.917168 -0.006723 379.707855
52 379.707825 0.194073 0.000477 -0.004671 -31.293650 -0.004671 379.707855
53 379.707825 0.194073 0.000477 -0.002648 -32.670135 -0.002648 379.707855
[Rear_Toe1_03]
51 500.129700 0.165701 0.000119 -179.994919 70.063713 -179.998459 500.129761
52 500.129700 0.165701 0.000119 -179.992096 79.271835 -179.995605 500.129761
53 500.129700 0.165701 0.000119 -179.928925 89.049820 -179.932419 500.129761
[Rear_Toe2_02]
51 340.494507 0.000238 -0.000954 0.001174 -89.260071 0.001174 340.494507
52 340.494507 0.000238 -0.000954 0.000000 -89.791580 0.000000 340.494507
53 340.494507 0.000238 -0.000954 0.000000 -89.677963 -0.002347 340.494507
[Rear_Toe2_03]
51 433.103577 0.000000 0.000238 -179.995056 69.010437 -179.998627 433.103546
52 433.103577 0.000000 0.000238 -179.995392 66.508209 -179.998962 433.103546
53 433.103577 0.000000 0.000238 -179.995529 65.288185 -179.999100 433.103546
[Rear_Toe3_02]
51 340.494141 -0.000358 -0.000477 0.001174 -86.812424 0.001174 340.494171
52 340.494141 -0.000358 -0.000477 0.001174 -88.326134 0.001174 340.494171
53 340.494141 -0.000358 -0.000477 0.001174 -89.322754 0.001174 340.494171
[Rear_Toe3_03]
51 433.103577 0.001431 -0.000238 -179.996918 76.386475 -179.993393 433.103546
52 433.103577 0.001431 -0.000238 -179.998108 71.947212 -179.994568 433.103546
53 433.103577 0.001431 -0.000238 -179.998657 68.794365 -179.995102 433.103546
[Back_Bone]
51 1312.175781 -701.934692 0.000954 2.369369 0.176203 -86.617981 1488.125488
52 1312.175781 -701.934692 0.000954 2.492872 -0.438339 -86.794075 1488.125488
53 1312.175781 -701.934692 0.000954 2.409328 -0.857024 -86.852310 1488.125488
[Head]
51 1406.159424 809.709290 0.001431 -7.139558 1.815959 1.429528 1622.625488
52 1406.159424 809.709290 0.001431 -6.955025 1.685885 1.693932 1622.625488
53 1406.159424 809.709290 0.001431 -6.771098 1.554957 1.957909 1622.625488
[Motor_Bone]
51 1158.364380 -417.834747 0.000477 -2.203643 -0.253251 -106.241302 1231.419434
52 1158.364380 -417.834747 0.000477 -2.687923 0.131920 -105.851540 1231.419434
53 1158.364380 -417.834747 0.000477 -5.513591 1.191221 -104.796608 1231.419434
[Ping_Mechanism]
51 1311.310425 -462.070313 -24.704288 0.000103 -0.000053 82.120995 1390.558960
52 1305.829834 -461.678436 -16.949036 0.000103 -0.000053 82.120995 1385.144775
53 1299.235840 -460.381775 -7.536471 0.000103 -0.000053 82.120995 1378.412720
[BN_LookIK]
51 193.241119 1380.371704 -0.002861 0.000000 89.965736 -31.038179 1393.832153
52 193.241119 1380.371704 -0.002861 0.000000 89.965736 -31.038179 1393.832153
53 193.241119 1380.371704 -0.002861 0.000000 89.965736 -31.038179 1393.832153
[bottomMouth]
51 -435.092926 615.759399 -0.000954 -0.000022 0.000016 73.527184 753.966492
52 -435.092926 615.759399 -0.000954 -0.000022 0.000016 73.527184 753.966492
53 -435.092926 615.759399 -0.000954 -0.000022 0.000016 73.527184 753.966492
[L_Mouth01]
51 554.440979 7.658243 838.222046 150.204178 23.759130 109.605339 1005.027161
52 554.440979 7.658243 838.222046 150.204178 23.759130 109.605339 1005.027161
53 554.440979 7.658243 838.222046 150.204178 23.759130 109.605339 1005.027161
[L_mouthFront]
51 551.629089 934.514771 339.150421 0.000081 2.804060 79.119301 1136.941284
52 551.629089 934.514771 339.150421 0.000081 2.804060 79.119301 1136.941284
53 551.629089 934.514771 339.150421 0.000081 2.804060 79.119301 1136.941284
[mouthGun]
51 55.332661 1627.420898 0.000000 0.000023 0.000009 -11.038128 1628.361328
52 55.332661 1627.420898 0.000000 0.000023 0.000009 -11.038128 1628.361328
53 55.332661 1627.420898 0.000000 0.000023 0.000009 -11.038128 1628.361328
[R_Mouth01]
51 554.442383 7.659197 -838.223938 29.795891 -23.759109 109.605331 1005.029541
52 554.442383 7.659197 -838.223938 29.795891 -23.759109 109.605331 1005.029541
53 554.442383 7.659197 -838.223938 29.795891 -23.759109 109.605331 1005.029541
[R_mouthFront]
51 551.629089 934.514282 -339.151367 0.000029 -2.803930 79.119133 1136.941162
52 551.629089 934.514282 -339.151367 0.000029 -2.803930 79.119133 1136.941162
53 551.629089 934.514282 -339.151367 0.000029 -2.803930 79.119133 1136.941162
[TopMouth]
51 461.269867 -56.106091 -0.008583 -0.000059 -0.000268 92.025169 464.669525
52 461.269867 -56.106091 -0.008583 -0.000059 -0.000268 92.025169 464.669525
53 461.269867 -56.106091 -0.008583 -0.000059 -0.000268 92.025169 464.669525
[weapon_bone]
51 -987.239868 1448.372803 0.001431 0.000000 89.965736 -31.038221 1752.833740
52 -987.239868 1448.372803 0.001431 0.000000 89.965736 -31.038221 1752.833740
53 -987.239868 1448.372803 0.001431 0.000000 89.965736 -31.038221 1752.833740
